PathFileType	4	(X/Y/Z)	C:/Users/opensim2020/Desktop/walking_exp_matlab/subject06_walking13_straight_01.trc																																																																																																																																																				
DataRate	CameraRate	NumFrames	NumMarkers	Units	OrigDataRate	OrigDataStartFrame	OrigNumFrames																																																																																																																																																
100	100	8	50	mm	100	971	163																																																																																																																																																
Frame#	Time	LFHD			RFHD			LBHD			RBHD			C7			T10			CLAV			STRN			RBAK			LSHO			LUPA			LELB			LFRM			LWRA			LWRB			LFIN			RSHO			RUPA			RELB			RFRM			RWRA			RWRB			RFIN			LASI			RASI			LPSI			RPSI			LTHI			LKNE			LTIB			LANK			LHEE			LTOE			RTHI			RKNE			RTIB			RANK			RHEE			RTOE			*39			*40			*41			*42			*43			*44			*45			*46			*47			*48			*49		
		X1	Y1	Z1	X2	Y2	Z2	X3	Y3	Z3	X4	Y4	Z4	X5	Y5	Z5	X6	Y6	Z6	X7	Y7	Z7	X8	Y8	Z8	X9	Y9	Z9	X10	Y10	Z10	X11	Y11	Z11	X12	Y12	Z12	X13	Y13	Z13	X14	Y14	Z14	X15	Y15	Z15	X16	Y16	Z16	X17	Y17	Z17	X18	Y18	Z18	X19	Y19	Z19	X20	Y20	Z20	X21	Y21	Z21	X22	Y22	Z22	X23	Y23	Z23	X24	Y24	Z24	X25	Y25	Z25	X26	Y26	Z26	X27	Y27	Z27	X28	Y28	Z28	X29	Y29	Z29	X30	Y30	Z30	X31	Y31	Z31	X32	Y32	Z32	X33	Y33	Z33	X34	Y34	Z34	X35	Y35	Z35	X36	Y36	Z36	X37	Y37	Z37	X38	Y38	Z38	X39	Y39	Z39	X40	Y40	Z40	X41	Y41	Z41	X42	Y42	Z42	X43	Y43	Z43	X44	Y44	Z44	X45	Y45	Z45	X46	Y46	Z46	X47	Y47	Z47	X48	Y48	Z48	X49	Y49	Z49	X50	Y50	Z50
																																																																																																																																																							
123	1.22	427.44666	1648.14087	-1044.8291	418.31735	1636.54224	-913.86096	289.31067	1610.7854	-1054.60669	282.21741	1603.91821	-925.62268	271.47794	1444.86316	-992.70154	233.19864	1114.48633	-980.66443	380.29807	1365.06482	-992.28864	419.89841	1191.32886	-993.51941	197.1954	1275.38184	-905.51929	320.67081	1395.36658	-1153.64758	276.60718	1198.60632	-1221.0166	243.84106	1090.70117	-1227.41357	231.35526	939.72473	-1244.20068	255.88167	815.29834	-1192.86328	202.47311	824.46198	-1239.06689	218.49641	734.58624	-1230.35718	337.50275	1400.99097	-832.06299	336.83212	1203.93286	-736.94019	377.18005	1089.25049	-720.58844	441.38177	988.11249	-707.34387	552.62	891.64587	-750.60474	509.15158	868.64661	-706.09418	577.48322	821.60236	-707.34833	418.82242	960.76263	-1083.94055	406.00787	960.35907	-866.84821	259.13235	979.99146	-1068.91345	257.14648	984.8689	-900.24036	419.08554	647.69965	-1158.24475	478.90903	496.8739	-1131.29602	489.61777	242.32068	-1127.08911	526.5719	72.31583	-1090.41357	495.55423	51.37852	-1039.31018	671.93591	66.20428	-1101.93213	316.73965	625.99854	-829.08594	296.50903	500.95862	-852.21686	185.3998	253.39595	-863.83167	130.45825	77.27269	-919.36584	86.91375	59.68269	-965.16284	277.73856	29.68816	-916.42804	329.53046	1698.48083	-991.81299	NaN	NaN	NaN	NaN	NaN	NaN	NaN	NaN	NaN	NaN	NaN	NaN	NaN	NaN	NaN	NaN	NaN	NaN	NaN	NaN	NaN	NaN	NaN	NaN	NaN	NaN	NaN	NaN	NaN	NaN
124	1.23	438.64154	1646.48474	-1045.01904	429.37744	1634.8009	-914.08478	300.40256	1609.21082	-1054.84998	293.22757	1602.29407	-925.91199	282.39688	1443.23865	-993.0874	243.92316	1112.71729	-981.44312	391.28009	1363.41077	-992.72382	430.82123	1189.72693	-993.81378	207.7337	1273.90662	-906.01221	331.59375	1393.79578	-1154.10291	285.82224	1197.5553	-1221.2229	251.98526	1090.02332	-1227.28967	237.14365	939.28864	-1244.16052	260.62308	814.45892	-1193.10046	206.77113	824.46478	-1238.66956	221.40648	734.29785	-1230.17114	348.28168	1399.15588	-832.45789	348.27155	1202.36108	-736.99768	389.2637	1088.06177	-720.38434	455.35767	988.27618	-707.33038	568.54498	894.58698	-751.04614	525.78662	870.41412	-706.72528	595.31171	824.99933	-708.05859	430.2955	959.21783	-1084.07678	416.51831	958.79724	-866.8725	270.58752	978.1355	-1069.89294	267.80347	983.2724	-901.13324	429.00446	645.32526	-1159.01233	489.38501	494.86462	-1131.04651	511.00052	241.32486	-1127.07483	556.00482	72.7963	-1090.63782	525.42664	50.70752	-1039.88159	702.25055	71.97736	-1099.79968	325.61542	625.18854	-828.95367	303.96912	500.29269	-852.24908	189.25594	254.04059	-863.63293	131.16463	78.77374	-918.96246	87.25014	61.93184	-964.69495	278.09018	29.68737	-916.1908	340.64951	1696.85266	-992.00879	NaN	NaN	NaN	NaN	NaN	NaN	NaN	NaN	NaN	NaN	NaN	NaN	NaN	NaN	NaN	NaN	NaN	NaN	NaN	NaN	NaN	NaN	NaN	NaN	NaN	NaN	NaN	NaN	NaN	NaN
125	1.24	449.80542	1644.86377	-1045.24707	440.44757	1633.10791	-914.33459	311.55905	1607.62415	-1055.21313	304.32581	1600.6272	-926.27301	293.35468	1441.59033	-993.56396	254.87799	1110.96008	-982.38318	402.24902	1361.8136	-993.13409	441.81616	1188.18811	-994.18475	218.49706	1272.16406	-906.77466	342.61105	1392.23584	-1154.64758	295.42468	1196.52991	-1221.56482	260.38486	1089.2782	-1227.26404	243.72934	938.94629	-1244.34509	266.05072	813.58154	-1193.44263	211.65088	824.36853	-1238.34143	224.96181	733.98315	-1230.06714	359.16086	1397.30579	-832.92981	359.47415	1200.73108	-737.1474	401.27197	1086.86572	-720.30957	469.00433	988.35541	-707.45007	584.04071	897.40625	-751.65314	542.02863	872.09674	-707.12793	612.34467	828.47852	-708.91144	441.86298	957.77759	-1084.17383	427.30194	957.57635	-867.1767	281.93878	976.28729	-1070.88538	278.47247	981.58118	-902.15167	439.52979	643.27771	-1160.05798	499.93631	492.8028	-1131.06824	530.66766	240.50346	-1127.10132	583.22247	73.74986	-1090.59204	553.09241	50.56463	-1040.15515	730.08368	78.10793	-1097.73218	334.70749	624.32953	-828.89008	312.80624	499.23181	-851.995	193.52481	254.89777	-863.47638	132.05945	80.67805	-918.29572	87.85912	64.36696	-964.13043	278.32739	29.68078	-916.1557	351.79312	1695.23389	-992.27472	NaN	NaN	NaN	NaN	NaN	NaN	NaN	NaN	NaN	NaN	NaN	NaN	NaN	NaN	NaN	NaN	NaN	NaN	NaN	NaN	NaN	NaN	NaN	NaN	NaN	NaN	NaN	NaN	NaN	NaN
126	1.25	460.97516	1643.28699	-1045.55127	451.62589	1631.52905	-914.63513	322.7742	1606.14453	-1055.68811	315.4483	1598.99597	-926.73035	304.52008	1440.01038	-994.19757	265.85278	1109.2876	-983.45648	413.34732	1360.27039	-993.62421	452.8696	1186.67664	-994.63068	229.46062	1270.36694	-907.79913	353.7709	1390.71069	-1155.28027	305.30746	1195.47949	-1221.9386	269.19467	1088.48157	-1227.24768	250.72455	938.1557	-1243.93579	272.02216	812.6886	-1193.84253	217.43266	824.09784	-1237.95703	229.24362	733.61487	-1230.09485	369.94031	1395.50513	-833.46326	370.67981	1199.18262	-737.44879	413.04849	1085.67932	-720.26154	482.29977	988.38202	-707.70636	598.93219	899.99207	-752.29962	557.39288	873.53448	-708.09125	629.17664	831.93445	-709.47461	453.61316	956.49976	-1084.3623	437.85593	956.32617	-867.336	293.53784	974.53137	-1072.03674	289.23663	979.88947	-903.29156	450.97299	641.59344	-1161.1134	510.56622	490.76324	-1131.17261	548.92065	239.81007	-1126.90625	608.0896	74.99694	-1090.42346	578.38782	50.7935	-1040.26599	755.28467	83.87797	-1095.75977	344.25232	623.43579	-828.77405	321.80521	498.32587	-851.93903	198.31071	255.71571	-863.26868	133.1512	82.65288	-917.61627	88.683	67.10835	-963.40857	278.55496	29.6581	-916.11841	362.97336	1693.61719	-992.59436	NaN	NaN	NaN	NaN	NaN	NaN	NaN	NaN	NaN	NaN	NaN	NaN	NaN	NaN	NaN	NaN	NaN	NaN	NaN	NaN	NaN	NaN	NaN	NaN	NaN	NaN	NaN	NaN	NaN	NaN
127	1.26	472.23688	1641.88416	-1045.88733	462.74057	1629.91992	-914.97632	334.04056	1604.64746	-1056.1239	326.50677	1597.43591	-927.22607	315.42905	1438.54761	-994.7757	276.94608	1107.69336	-984.58154	424.54587	1358.77246	-994.21692	463.99539	1185.25916	-995.09418	240.28577	1268.85986	-908.81299	365.08548	1389.25916	-1155.93079	315.38617	1194.44336	-1222.39722	278.37827	1087.76526	-1227.48779	258.3689	937.62823	-1244.09839	278.73672	811.98358	-1194.34961	223.71901	823.99878	-1238.06543	234.4702	733.35321	-1230.24316	380.76749	1393.81982	-834.08691	381.76804	1197.70117	-737.86768	424.71411	1084.48889	-720.44354	495.40921	988.43048	-708.05817	613.28076	902.39075	-753.07758	572.35291	875.01624	-708.92041	644.9884	835.10229	-710.20575	465.39255	955.32684	-1084.58643	448.72412	955.19513	-867.60547	305.21552	972.84357	-1073.27673	300.05026	978.20593	-904.56952	463.18146	640.23676	-1162.00171	521.40143	488.98178	-1131.28308	565.90948	239.17732	-1126.53589	630.20197	76.1863	-1090.08875	600.98688	51.14904	-1040.20764	777.53741	88.70866	-1093.94263	354.25238	622.42053	-828.80237	331.17883	497.38297	-852.02759	203.47134	256.64542	-863.05823	134.36028	84.81482	-917.04077	89.51867	70.36024	-962.46661	278.74155	29.74205	-915.95923	374.16586	1692.14282	-992.97241	NaN	NaN	NaN	NaN	NaN	NaN	NaN	NaN	NaN	NaN	NaN	NaN	NaN	NaN	NaN	NaN	NaN	NaN	NaN	NaN	NaN	NaN	NaN	NaN	NaN	NaN	NaN	NaN	NaN	NaN
128	1.27	483.49457	1640.54346	-1046.11035	473.85724	1628.47644	-915.35962	345.33322	1603.26868	-1056.68921	337.74411	1595.91687	-927.82086	326.83304	1437.11523	-995.71729	288.1055	1106.18494	-985.76599	435.72031	1357.41467	-994.80664	475.31757	1183.97375	-995.63232	251.27737	1267.32715	-910.03296	376.52054	1387.87732	-1156.67432	325.89444	1193.51965	-1222.98547	287.91104	1087.02795	-1227.8064	266.49765	937.15967	-1244.58167	285.55811	811.16986	-1194.69434	230.93695	823.82837	-1238.33569	240.75415	733.04272	-1230.46802	391.42737	1392.33569	-834.81879	392.4664	1196.25415	-738.42566	436.03708	1083.41675	-720.74689	508.02542	988.4278	-708.54779	627.19769	904.66882	-753.8396	586.75458	876.29181	-709.76385	660.13306	838.31256	-710.79565	477.24689	954.2746	-1084.87915	459.67404	954.13214	-867.83124	317.11279	971.27795	-1074.5929	311.0513	976.55975	-905.9588	476.03592	639.13287	-1162.5603	532.526	487.59546	-1131.26404	581.80011	238.66736	-1126.22314	649.54498	76.99034	-1089.43774	620.62128	51.4171	-1039.78064	796.92554	92.31955	-1092.32874	364.60834	621.54645	-828.98566	341.25031	496.27203	-851.9884	208.95168	257.82977	-862.85858	135.82816	87.50482	-916.25885	90.82285	73.85882	-961.53137	278.64246	29.36848	-916.02588	385.33121	1690.70435	-993.39703	NaN	NaN	NaN	NaN	NaN	NaN	NaN	NaN	NaN	NaN	NaN	NaN	NaN	NaN	NaN	NaN	NaN	NaN	NaN	NaN	NaN	NaN	NaN	NaN	NaN	NaN	NaN	NaN	NaN	NaN
129	1.28	494.86111	1639.34351	-1046.54187	484.97339	1627.17358	-915.76904	356.64984	1602.0321	-1057.34412	348.88544	1594.56006	-928.41455	338.0498	1435.8418	-996.57208	299.61914	1104.73499	-986.95813	447.06558	1356.18506	-995.45923	486.67538	1182.81812	-996.24469	262.34445	1265.93347	-911.30719	388.22842	1386.62524	-1157.51709	336.54721	1192.60913	-1223.63232	298.07092	1086.29443	-1228.35327	275.46188	936.60162	-1245.0636	293.33685	810.43628	-1194.81348	238.90488	823.56567	-1238.69958	247.85934	732.66168	-1230.80603	402.01807	1390.98938	-835.62909	403.34537	1195.03516	-739.07806	447.2269	1082.45129	-721.2052	520.23853	988.46558	-709.11707	640.71252	906.6709	-754.64923	600.54352	877.5257	-710.66052	674.54266	841.05414	-711.66888	489.27313	953.36633	-1085.25916	470.70657	953.13074	-868.12787	328.68613	969.83112	-1075.93896	322.32764	974.97296	-907.3927	489.22748	638.13489	-1162.82166	544.32959	486.75909	-1131.07666	596.52002	238.08351	-1125.83215	666.06946	77.22348	-1088.52246	637.16455	51.30861	-1039.0155	813.3728	94.15301	-1090.64246	375.29727	620.6051	-829.30054	351.72748	495.39169	-852.06335	214.82643	259.22034	-862.58777	137.54559	90.5632	-915.41595	92.17889	77.923	-960.51587	278.80862	29.237	-916.00452	396.55295	1689.45691	-993.90033	NaN	NaN	NaN	NaN	NaN	NaN	NaN	NaN	NaN	NaN	NaN	NaN	NaN	NaN	NaN	NaN	NaN	NaN	NaN	NaN	NaN	NaN	NaN	NaN	NaN	NaN	NaN	NaN	NaN	NaN
130	1.29	506.27982	1638.28516	-1047.11304	496.21051	1625.9917	-916.22424	368.10483	1600.95642	-1058.05493	360.08145	1593.37781	-929.17596	348.94864	1434.70984	-997.35413	310.91275	1103.65076	-988.21326	458.44876	1355.07349	-996.1673	498.17218	1181.86133	-996.91559	273.40213	1264.96167	-912.49774	399.98065	1385.5249	-1158.38538	347.74756	1191.82837	-1224.46472	308.68436	1085.65698	-1229.10889	285.01672	936.0932	-1245.70422	302.02606	809.79706	-1195.28711	247.64723	823.30713	-1239.27051	255.95348	732.34296	-1231.25098	412.89734	1389.82056	-836.47833	414.24243	1194.08911	-739.81451	458.07242	1081.60022	-721.75641	531.99518	988.53748	-709.77295	653.34546	908.42566	-755.5614	613.93799	878.77838	-711.42261	688.1853	843.40619	-712.54614	501.44525	952.60162	-1085.73291	482.15387	952.29102	-868.65149	340.83273	968.62653	-1077.28906	333.86227	973.52295	-908.76642	502.60049	637.3429	-1162.95544	556.98334	486.37192	-1130.77319	610.25836	237.46944	-1125.43579	679.7973	76.7314	-1087.38757	650.72583	50.66091	-1038.0083	827.12024	94.14159	-1088.98315	386.4241	619.75171	-829.67395	362.78827	494.50565	-852.17444	221.06816	260.86221	-862.34271	139.53253	94.22206	-914.32947	93.84942	82.73539	-959.43927	279.01611	29.18686	-915.97186	407.85443	1688.26013	-994.42786	NaN	NaN	NaN	NaN	NaN	NaN	NaN	NaN	NaN	NaN	NaN	NaN	NaN	NaN	NaN	NaN	NaN	NaN	NaN	NaN	NaN	NaN	NaN	NaN	NaN	NaN	NaN	NaN	NaN	NaN
